
<svg version="1.0" xmlns="http://www.w3.org/2000/svg"
 width="50.000000pt" height="50.000000pt" viewBox="0 0 50.000000 50.000000"
 preserveAspectRatio="xMidYMid meet">

<g transform="translate(0.000000,50.000000) scale(0.100000,-0.100000)"
fill="white" stroke="none">
<path d="M143 360 c-78 -16 -133 -58 -133 -101 0 -45 69 -89 163 -104 33 -5
37 -9 37 -36 l0 -30 55 43 c30 23 55 45 55 48 0 3 -25 25 -55 48 l-55 43 0
-31 c0 -30 -1 -31 -37 -24 -53 9 -103 31 -103 44 0 42 243 63 323 28 46 -21
47 -35 2 -54 -29 -12 -35 -19 -35 -45 0 -27 3 -30 23 -24 41 13 82 41 97 68
13 24 13 30 0 55 -26 46 -95 73 -202 77 -51 2 -112 0 -135 -5z"/>
</g>
</svg>
